<?xml version="1.0" encoding="utf-8"?>
<!-- Generator: Adobe Illustrator 16.0.0, SVG Export Plug-In . SVG Version: 6.00 Build 0)  -->
<!DOCTYPE svg PUBLIC "-//W3C//DTD SVG 1.1//EN" "http://www.w3.org/Graphics/SVG/1.1/DTD/svg11.dtd">
<svg version="1.1" id="Ebene_1" xmlns="http://www.w3.org/2000/svg" xmlns:xlink="http://www.w3.org/1999/xlink" x="0px" y="0px"
	 width="1200px" height="1200px" viewBox="0 0 1200 1200" enable-background="new 0 0 1200 1200" xml:space="preserve">
<linearGradient id="SVGID_1_" gradientUnits="userSpaceOnUse" x1="-227.3833" y1="803.832" x2="-224.6892" y2="798.6226" gradientTransform="matrix(203.513 0 0 237.8224 46592.9922 -189830.4375)">
	<stop  offset="0" style="stop-color:#FF7854"/>
	<stop  offset="1" style="stop-color:#FD267D"/>
</linearGradient>
<path fill="url(#SVGID_1_)" d="M403.228,489.606c221.5-70.351,256.327-273.74,228.465-456.929c0,0,0-10.448,6.964-6.966
	c214.534,105.178,453.447,326.677,453.447,667.98c0,252.844-200.603,481.309-492.453,481.309
	c-316.229,0-491.756-221.499-491.756-484.79c0-158.115,105.177-316.229,228.464-386.58c0,0,10.449,0,10.449,6.965
	c0,34.827,13.93,123.288,52.937,175.528L403.228,489.606z"/>
</svg>
